<svg xmlns="http://www.w3.org/2000/svg" width="25.922" height="25.922"><path d="M0 12.96C.018 5.789 5.828-.008 12.989 0c7.11.008 12.954 5.866 12.933 12.966-.021 7.22-5.846 12.98-13.102 12.956C5.79 25.899-.018 20.026 0 12.96m11.79 1.174v.361c0 1.435-.003 2.87 0 4.304.002.57.305 1.004.796 1.167.767.255 1.536-.293 1.543-1.122.011-1.453.003-2.906.004-4.36v-.35h.362c1.434 0 2.87.002 4.304-.002.57-.001 1.003-.305 1.166-.796.255-.767-.294-1.536-1.122-1.542-1.454-.01-2.907-.003-4.36-.004h-.35v-.362c0-1.435.002-2.87-.002-4.304-.002-.571-.305-1.004-.797-1.167-.767-.254-1.535.294-1.541 1.123-.011 1.453-.004 2.906-.004 4.36v.35h-.334c-1.407 0-2.815-.001-4.222.002-.164 0-.334.004-.49.047a1.167 1.167 0 0 0-.841 1.266c.072.57.54 1.014 1.121 1.022.993.014 1.987.006 2.98.007h1.786" fill="#585858" fill-rule="evenodd" data-name="Path 41391"/></svg>