<?xml version="1.0" standalone="no"?>
<!DOCTYPE svg PUBLIC "-//W3C//DTD SVG 20010904//EN"
 "http://www.w3.org/TR/2001/REC-SVG-20010904/DTD/svg10.dtd">
<svg version="1.0" xmlns="http://www.w3.org/2000/svg"
 width="55.000000pt" height="55.000000pt" viewBox="0 0 55.000000 55.000000"
 preserveAspectRatio="xMidYMid meet">

<g transform="translate(0.000000,55.000000) scale(0.100000,-0.100000)"
fill="#000000" stroke="none">
<path d="M365 536 c-30 -14 -143 -122 -134 -129 2 -2 20 -7 40 -10 32 -5 41
-1 70 30 46 47 75 58 105 38 45 -29 32 -63 -50 -143 -41 -40 -79 -72 -85 -72
-7 0 -25 7 -41 15 -53 28 -88 -11 -47 -53 31 -30 94 -40 133 -19 16 8 64 51
107 95 74 77 77 82 77 127 0 102 -85 161 -175 121z"/>
<path d="M185 358 c-29 -16 -123 -107 -156 -152 -33 -44 -37 -82 -13 -132 21
-43 59 -64 119 -64 44 0 51 4 111 62 35 33 64 64 64 68 0 4 -16 11 -36 15 -34
6 -40 3 -78 -34 -50 -49 -87 -54 -112 -16 -22 34 -13 53 65 129 69 66 103 80
128 55 18 -18 58 -7 61 17 7 49 -96 84 -153 52z"/>
</g>
</svg>
