<svg xmlns="http://www.w3.org/2000/svg" width="24.662" height="24.665" viewBox="-0.5 -0.5 24.662 24.665"><g data-name="Path 41324"><path d="M2.649 14.628c-.29-.025-.557-.023-.813-.074C1 14.384.423 13.888.14 13.084c-.287-.815-.127-1.563.419-2.23.076-.092.164-.176.249-.26L10.595.805c1.076-1.076 2.4-1.075 3.478.003l9.854 9.856c.804.804.965 1.916.403 2.837-.429.703-1.066 1.066-1.89 1.1-.12.005-.24.005-.36.008-.008 0-.016.003-.065.013v.267c0 2.359.004 4.718-.002 7.077-.003 1.29-.821 2.333-2.056 2.623a3.11 3.11 0 0 1-.69.07c-1.236.007-2.472.004-3.707.004-.578 0-.86-.279-.86-.853v-5.536c-.001-.868-.487-1.35-1.36-1.351-.69-.001-1.38-.003-2.07 0-.809.004-1.304.5-1.305 1.308-.002 1.846 0 3.691-.001 5.537 0 .628-.266.895-.89.895H5.439c-1.66-.002-2.789-1.133-2.79-2.8V14.629Z" fill="#585858" fill-rule="evenodd"/><path d="M2.649 14.628c-.29-.025-.557-.023-.813-.074C1 14.384.423 13.888.14 13.084c-.287-.815-.127-1.563.419-2.23.076-.092.164-.176.249-.26L10.595.805c1.076-1.076 2.4-1.075 3.478.003l9.854 9.856c.804.804.965 1.916.403 2.837-.429.703-1.066 1.066-1.89 1.1-.12.005-.24.005-.36.008-.008 0-.016.003-.065.013v.267c0 2.359.004 4.718-.002 7.077-.003 1.29-.821 2.333-2.056 2.623a3.11 3.11 0 0 1-.69.07c-1.236.007-2.472.004-3.707.004-.578 0-.86-.279-.86-.853v-5.536c-.001-.868-.487-1.35-1.36-1.351-.69-.001-1.38-.003-2.07 0-.809.004-1.304.5-1.305 1.308-.002 1.846 0 3.691-.001 5.537 0 .628-.266.895-.89.895H5.439c-1.66-.002-2.789-1.133-2.79-2.8V14.629Z" stroke-linejoin="round" stroke-linecap="round" stroke="rgba(0,0,0,0 )" fill="transparent"/></g></svg>