<svg xmlns="http://www.w3.org/2000/svg" width="24.182" height="24.131" viewBox="251 10.869 24.182 24.131"><g data-name="Group 14910"><g data-name="Group 14909"><g data-name="Path 41326"><path d="M275.182 22.934c-.05 5.866-4.28 10.886-10.08 11.883-2.819.484-5.481.003-7.977-1.39a.458.458 0 0 0-.428-.035c-1.37.507-2.746 1.001-4.118 1.504-.468.172-.897.135-1.257-.228-.36-.363-.389-.792-.217-1.26.505-1.37 1-2.747 1.505-4.118a.432.432 0 0 0-.032-.405c-3.802-6.743-.444-15.186 6.948-17.48 6.774-2.101 13.985 2.188 15.345 9.14.154.787.21 1.592.31 2.389Z" fill="#585858" fill-rule="evenodd"/><path d="M275.182 22.934c-.05 5.866-4.28 10.886-10.08 11.883-2.819.484-5.481.003-7.977-1.39a.458.458 0 0 0-.428-.035c-1.37.507-2.746 1.001-4.118 1.504-.468.172-.897.135-1.257-.228-.36-.363-.389-.792-.217-1.26.505-1.37 1-2.747 1.505-4.118a.432.432 0 0 0-.032-.405c-3.802-6.743-.444-15.186 6.948-17.48 6.774-2.101 13.985 2.188 15.345 9.14.154.787.21 1.592.31 2.389Z" stroke-linejoin="round" stroke-linecap="round" stroke="rgba(0,0,0,0 )" fill="transparent"/></g></g></g></svg>