<svg id="Group_15938" data-name="Group 15938" xmlns="http://www.w3.org/2000/svg" xmlns:xlink="http://www.w3.org/1999/xlink" width="24.417" height="30.383" viewBox="0 0 24.417 30.383">
  <defs>
    <clipPath id="clip-path">
      <rect id="Rectangle_16408" data-name="Rectangle 16408" width="24.417" height="30.383" fill="#585858" stroke="rgba(0,0,0,0)" stroke-width="1"/>
    </clipPath>
  </defs>
  <g id="Group_15938-2" data-name="Group 15938" clip-path="url(#clip-path)">
    <path id="Path_41458" data-name="Path 41458" d="M12.2,24.489c-3.317,0-6.634-.04-9.949.015a2.108,2.108,0,0,1-2.114-2.95A3.072,3.072,0,0,1,1.26,20.023q.43-.322.862-.639a3.431,3.431,0,0,0,1.472-2.81c.038-2.039,0-4.08.051-6.119a8.509,8.509,0,0,1,.295-2.184A7.275,7.275,0,0,1,8.124,3.74a9.8,9.8,0,0,1,1.365-.525.8.8,0,0,0,.615-.778c.013-.154.012-.31.015-.465A1.8,1.8,0,0,1,11.724.053,2.318,2.318,0,0,1,13.6.434a1.593,1.593,0,0,1,.683,1.24c.016.262.03.524.047.786a.754.754,0,0,0,.6.742,8.941,8.941,0,0,1,4.29,2.718,6.462,6.462,0,0,1,1.569,4.236c.011,1.873,0,3.746.008,5.619a9.523,9.523,0,0,0,.094,1.318,3.35,3.35,0,0,0,1.378,2.259c.325.243.66.473.974.728a2.817,2.817,0,0,1,1.157,2.659,1.866,1.866,0,0,1-2.028,1.749q-4.742.006-9.484,0H12.2" transform="translate(0 -0.001)" fill="#585858" stroke="rgba(0,0,0,0)" stroke-width="1"/>
    <path id="Path_41459" data-name="Path 41459" d="M64.212,184.625c.243,1.778-1.726,3.811-3.806,3.938a4.175,4.175,0,0,1-4.593-3.938Z" transform="translate(-47.821 -158.189)" fill="#585858" stroke="rgba(0,0,0,0)" stroke-width="1"/>
  </g>
</svg>
