<svg xmlns="http://www.w3.org/2000/svg" width="19.672" height="25.076" viewBox="-4392 -17469.33 19.672 25.076"><g data-name="CompositeLayer"><path d="M-4375.666-17462.838c.006 3.568-2.9 6.49-6.46 6.503-3.587.014-6.52-2.864-6.535-6.466a6.488 6.488 0 0 1 6.486-6.53 6.497 6.497 0 0 1 6.51 6.493" fill="#585858" fill-rule="evenodd" data-name="Path 41359"/><path d="M-4382.167-17444.254a26.553 26.553 0 0 1-3.128-.197c-1.175-.148-2.332-.376-3.453-.766-.674-.235-1.321-.525-1.91-.935-.37-.26-.7-.56-.953-.94a2.347 2.347 0 0 1-.388-1.398c.038-1.65.442-3.202 1.251-4.642a9.823 9.823 0 0 1 3.624-3.696c.047-.028.076-.028.12.008a7.5 7.5 0 0 0 3.511 1.591c1.962.328 3.793-.035 5.479-1.097.24-.15.464-.328.693-.497.042-.031.07-.034.114-.007 2.08 1.246 3.533 3.006 4.34 5.295.347.983.507 2 .538 3.041.02.69-.217 1.274-.682 1.773-.426.458-.944.787-1.5 1.06-.907.445-1.869.724-2.853.932-1.14.24-2.294.377-3.457.43-.448.021-.897.03-1.346.045" fill="#585858" fill-rule="evenodd" data-name="Path 41358"/></g></svg>