<svg id="Group_16022" data-name="Group 16022" xmlns="http://www.w3.org/2000/svg" xmlns:xlink="http://www.w3.org/1999/xlink" width="14.905" height="13.364" viewBox="0 0 14.905 13.364">
  <defs>
    <clipPath id="clip-path">
      <rect id="Rectangle_16458" data-name="Rectangle 16458" width="14.905" height="13.364" fill="#c9e300"/>
    </clipPath>
  </defs>
  <g id="Group_16021" data-name="Group 16021" clip-path="url(#clip-path)">
    <path id="Path_41480" data-name="Path 41480" d="M7.524,108.056q3.449,0,6.9,0a.945.945,0,0,1,.286.034.386.386,0,0,1,.267.406,6.06,6.06,0,0,1-1.048,3.365,6.454,6.454,0,0,1-1.32,1.444.357.357,0,0,1-.207.075q-4.875.005-9.75,0a.351.351,0,0,1-.207-.075A6.263,6.263,0,0,1,.15,109.395a8.062,8.062,0,0,1-.074-.912.4.4,0,0,1,.376-.42,1.848,1.848,0,0,1,.2-.007H7.524" transform="translate(-0.071 -101.766)" fill="#c9e300"/>
    <path id="Path_41481" data-name="Path 41481" d="M2.975,3.873c-.232,0-.463,0-.695,0a.426.426,0,0,0-.448.488.433.433,0,0,0,.466.37c.485,0,.97,0,1.455,0a.349.349,0,0,1,.211.088c.266.246.524.5.784.755l-.023.049H4.593q-1.949,0-3.9,0A.184.184,0,0,1,.49,5.5,2.044,2.044,0,0,1,.533,3.833a.156.156,0,0,0-.029-.2A2.062,2.062,0,0,1,2.252.232a1.982,1.982,0,0,1,1.171.5.147.147,0,0,0,.19.025A2.063,2.063,0,0,1,6.354,3.507a.152.152,0,0,0,.033.189,2.067,2.067,0,0,1,.432,1.8.142.142,0,0,1-.175.135A2.057,2.057,0,0,1,6.012,5.6c-.179-.072-.307-.272-.456-.418-.329-.323-.66-.643-.982-.972A.338.338,0,0,1,4.486,4c-.008-.49,0-.979,0-1.469a.431.431,0,0,0-.328-.442.42.42,0,0,0-.524.4c-.011.2,0,.4,0,.6,0,.046,0,.093-.007.166-.057-.053-.1-.086-.132-.122C3.056,2.7,2.63,2.27,2.2,1.846a.423.423,0,0,0-.725.184.429.429,0,0,0,.138.434q.634.631,1.266,1.264A1.055,1.055,0,0,0,3,3.823l-.029.051" transform="translate(0 -0.21)" fill="#c9e300"/>
    <path id="Path_41482" data-name="Path 41482" d="M144.091,16.8a3.1,3.1,0,0,1,1.271.063.435.435,0,0,1,.29.6.447.447,0,0,1-.549.237,2.006,2.006,0,0,0-1.034.01c-.014,0-.027.011-.054.022.028.047.053.09.08.133a1.393,1.393,0,0,1-.234,1.787.317.317,0,0,1-.19.08q-2.349.007-4.7,0c-.028,0-.055,0-.1-.008.034-.049.055-.084.081-.115q1.062-1.282,2.125-2.563a1.4,1.4,0,0,1,2.027-.216c.015.012.031.021.071.048a1.832,1.832,0,0,0,.067-.36,5.324,5.324,0,0,0-.053-.735.461.461,0,0,1,.315-.571.445.445,0,0,1,.538.362,3.152,3.152,0,0,1,.051,1.226" transform="translate(-130.786 -14.31)" fill="#c9e300"/>
    <path id="Path_41483" data-name="Path 41483" d="M33.875,214.557h5.295a.444.444,0,0,1,.483.292.429.429,0,0,1-.321.567,1.154,1.154,0,0,1-.217.015H28.6a1.144,1.144,0,0,1-.217-.016.432.432,0,0,1,.025-.851,1.347,1.347,0,0,1,.189-.008h5.28" transform="translate(-26.405 -202.067)" fill="#c9e300"/>
    <path id="Path_41484" data-name="Path 41484" d="M117.307,4.453a3.15,3.15,0,0,0-.391-1.141.138.138,0,0,1-.014-.095,2.961,2.961,0,0,0-.546-2.665,3.047,3.047,0,0,1,2.349-.5,2.455,2.455,0,0,1,1.748,1.283,4.163,4.163,0,0,0-.647.311,3.543,3.543,0,0,0-.643.58c-.6.7-1.174,1.407-1.758,2.113-.024.03-.051.057-.1.109" transform="translate(-109.584 0)" fill="#c9e300"/>
  </g>
</svg>
