<svg id="Group_16018" data-name="Group 16018" xmlns="http://www.w3.org/2000/svg" xmlns:xlink="http://www.w3.org/1999/xlink" width="14.727" height="16.5" viewBox="0 0 14.727 16.5">
  <defs>
    <clipPath id="clip-path">
      <rect id="Rectangle_16264" data-name="Rectangle 16264" width="14.727" height="16.5" fill="#c9e300"/>
    </clipPath>
  </defs>
  <g id="Group_15856" data-name="Group 15856" clip-path="url(#clip-path)">
    <path id="Path_41426" data-name="Path 41426" d="M11.82,2.655c.785,0,1.516,0,2.246,0a.592.592,0,0,1,.6.34.61.61,0,0,1-.114.673q-3.255,4.1-6.5,8.2a.409.409,0,0,0-.1.226c-.006,1.041,0,2.082,0,3.124,0,.028,0,.056.009.106h.188c.6,0,1.208.012,1.812,0a.593.593,0,1,1-.006,1.18q-2.606,0-5.212,0a.6.6,0,0,1-.617-.514.589.589,0,0,1,.416-.636.935.935,0,0,1,.255-.024c.65,0,1.3,0,1.971,0,0-.061.008-.116.008-.17,0-1.007,0-2.013,0-3.02a.431.431,0,0,0-.084-.248Q3.493,7.849.291,3.818a.883.883,0,0,1-.29-.6.581.581,0,0,1,.551-.557c.063,0,.126,0,.19,0q4.643,0,9.286,0a.379.379,0,0,0,.311-.136c.442-.484.895-.959,1.337-1.443a.418.418,0,0,0,.1-.236A.9.9,0,0,1,12.663,0a.886.886,0,0,1,.881.8.876.876,0,0,1-.787.958.221.221,0,0,0-.127.035c-.262.271-.519.548-.81.858M1.855,3.839c.031.042.049.069.07.094.345.416.693.83,1.032,1.25a.3.3,0,0,0,.259.127c1.455,0,2.911,0,4.366-.007A.386.386,0,0,0,7.831,5.2c.364-.376.718-.762,1.074-1.145.06-.064.116-.132.186-.212ZM9.366,5.308c.619,0,1.2-.024,1.78.009A.859.859,0,0,0,12,4.923c.261-.374.575-.711.882-1.082-.047-.006-.068-.01-.088-.01-.656,0-1.312,0-1.968,0a.272.272,0,0,0-.173.082c-.4.421-.8.847-1.192,1.272-.026.028-.046.061-.09.12" transform="translate(0 0)" fill="#c9e300"/>
  </g>
</svg>
