<svg xmlns="http://www.w3.org/2000/svg" width="17.813" height="16.178" viewBox="0 0 17.813 16.178">
  <g id="Group_15832" data-name="Group 15832" transform="translate(-161.534 -61.429)">
    <path id="Path_41302" data-name="Path 41302" d="M295.4,213.772c-.386,0-.771.005-1.157,0a.236.236,0,0,0-.266.167,2.424,2.424,0,1,1,0-1.965.249.249,0,0,0,.274.182c.771-.009,1.542-.005,2.313,0a.813.813,0,1,1,0,1.622C296.175,213.775,295.789,213.772,295.4,213.772Z" transform="translate(-118.092 -137.776)" fill="#fff"/>
    <path id="Path_41303" data-name="Path 41303" d="M163.574,137.512c.392,0,.784-.006,1.176,0a.249.249,0,0,0,.28-.177,2.427,2.427,0,1,1,0,1.967.252.252,0,0,0-.277-.182c-.8.007-1.606.009-2.408,0a.786.786,0,0,1-.769-.724.8.8,0,0,1,.579-.851,1.165,1.165,0,0,1,.3-.032C162.828,137.509,163.2,137.512,163.574,137.512Z" transform="translate(-0.035 -68.8)" fill="#fff"/>
    <path id="Path_41304" data-name="Path 41304" d="M332.049,63.843a2.427,2.427,0,1,1,4.854.031,2.427,2.427,0,0,1-4.854-.031Z" transform="translate(-157.557 0)" fill="#fff"/>
    <path id="Path_41305" data-name="Path 41305" d="M167.276,84.253q-2.408,0-4.815,0a.809.809,0,0,1-.136-1.61,1.468,1.468,0,0,1,.208-.011h9.5a.837.837,0,0,1,.868.541.807.807,0,0,1-.768,1.079c-.7.007-1.39,0-2.085,0Z" transform="translate(-0.074 -19.59)" fill="#fff"/>
    <path id="Path_41306" data-name="Path 41306" d="M165.579,231.751c1.081,0,2.162,0,3.243,0a.806.806,0,0,1,.261,1.57,1.183,1.183,0,0,1-.354.049q-3.148,0-6.3,0a.823.823,0,0,1-.809-.458.764.764,0,0,1,.089-.855.8.8,0,0,1,.679-.312Q163.986,231.753,165.579,231.751Z" transform="translate(0 -157.377)" fill="#fff"/>
    <path id="Path_41307" data-name="Path 41307" d="M293.457,158.868c-1.068,0-2.137,0-3.2,0a.806.806,0,0,1-.105-1.607c.044,0,.088,0,.133,0q3.177,0,6.353,0a.805.805,0,1,1,.105,1.607c-.423.014-.847.005-1.271.005Z" transform="translate(-118.159 -88.543)" fill="#fff"/>
  </g>
</svg>
