<svg xmlns="http://www.w3.org/2000/svg" xmlns:xlink="http://www.w3.org/1999/xlink" width="29" height="29" viewBox="0 0 29 29">
  <defs>
    <clipPath id="clip-path">
      <rect id="Rectangle_16460" data-name="Rectangle 16460" width="13.188" height="12.898" fill="#fff"/>
    </clipPath>
  </defs>
  <g id="Group_16029" data-name="Group 16029" transform="translate(-24 -1082)">
    <circle id="Ellipse_782" data-name="Ellipse 782" cx="14.5" cy="14.5" r="14.5" transform="translate(24 1082)" fill="#3171ac"/>
    <g id="Group_16025" data-name="Group 16025" transform="translate(31.833 1089.387)">
      <g id="Group_16025-2" data-name="Group 16025" clip-path="url(#clip-path)">
        <path id="Path_41486" data-name="Path 41486" d="M0,432.013a.483.483,0,0,1,0,.8Z" transform="translate(0 -420.069)" fill="#fff"/>
        <path id="Path_41487" data-name="Path 41487" d="M472,460.679a.059.059,0,0,0,0-.013c.011-.133.011-.133.134-.153v.166Z" transform="translate(-458.95 -447.781)" fill="#fff"/>
        <path id="Path_41488" data-name="Path 41488" d="M177.151,142.808a.8.8,0,0,0,.055-.074,2.441,2.441,0,0,1,1.17-1,3.52,3.52,0,0,1,2.143-.155,2.517,2.517,0,0,1,1,.414,2.3,2.3,0,0,1,.778.977,4.714,4.714,0,0,1,.357,1.695c.022.541.024,1.082.028,1.623,0,.682,0,1.364,0,2.046,0,.523,0,1.046,0,1.569,0,.063-.021.085-.084.085-.539,0-1.078,0-1.617,0h-.733c-.166,0-.148,0-.148-.152q0-.964,0-1.928c0-.716,0-1.433,0-2.149a7.6,7.6,0,0,0-.063-.86,1.523,1.523,0,0,0-.2-.605,1.039,1.039,0,0,0-.768-.507,1.931,1.931,0,0,0-.835.042,1.27,1.27,0,0,0-.884.942,4.219,4.219,0,0,0-.123,1.213q0,.729,0,1.458t0,1.465q0,.494,0,.988c0,.09,0,.094-.093.094h-2.1c-.1,0-.2,0-.3,0-.058,0-.083-.019-.083-.08,0-.438,0-.875,0-1.313q0-.726,0-1.451t0-1.465q0-.719,0-1.437t0-1.465c0-.329,0-.659,0-.988,0-.093.005-.1.1-.1h2.287c.087,0,.094.007.094.1,0,.311,0,.622,0,.933,0,.028,0,.057.008.085l.024.008" transform="translate(-169.813 -137.568)" fill="#fff"/>
        <path id="Path_41489" data-name="Path 41489" d="M22.934,153.089q0-1.562,0-3.124c0-.311,0-.622,0-.933,0-.068.02-.093.09-.093.481,0,.963,0,1.444,0h.912c.135,0,.135,0,.135.13q0,1.261,0,2.522,0,1.337,0,2.674,0,1.43,0,2.861c0,.108,0,.11-.106.11H23.088c-.173,0-.152.009-.152-.154q0-1.531,0-3.061,0-.466,0-.933" transform="translate(-22.3 -144.822)" fill="#fff"/>
        <path id="Path_41490" data-name="Path 41490" d="M18.5,1.5A1.493,1.493,0,1,1,17.017,0,1.493,1.493,0,0,1,18.5,1.5" transform="translate(-15.085 -0.001)" fill="#fff"/>
      </g>
    </g>
  </g>
</svg>
