<svg id="Group_16020" data-name="Group 16020" xmlns="http://www.w3.org/2000/svg" xmlns:xlink="http://www.w3.org/1999/xlink" width="15.118" height="13.225" viewBox="0 0 15.118 13.225">
  <defs>
    <clipPath id="clip-path">
      <rect id="Rectangle_16262" data-name="Rectangle 16262" width="15.118" height="13.224" fill="#c9e300"/>
    </clipPath>
  </defs>
  <g id="Group_15852" data-name="Group 15852" clip-path="url(#clip-path)">
    <path id="Path_41417" data-name="Path 41417" d="M31.732,96.629a2.546,2.546,0,0,1,.382-1.25c.563-.883,1.111-1.776,1.7-2.641a3.678,3.678,0,0,1,6.145.051q.838,1.267,1.641,2.556a2.325,2.325,0,0,1-1.439,3.538,2.163,2.163,0,0,1-1.332-.091,4.692,4.692,0,0,0-3.862-.022,2.317,2.317,0,0,1-3.083-1.411,6.212,6.212,0,0,1-.155-.731" transform="translate(-29.857 -85.724)" fill="#c9e300"/>
    <path id="Path_41418" data-name="Path 41418" d="M62.171,2.435A2.523,2.523,0,0,1,63.227.385a1.982,1.982,0,0,1,2.579.2,2.766,2.766,0,0,1,.118,3.78,2.051,2.051,0,0,1-3.282-.273,2.877,2.877,0,0,1-.471-1.655" transform="translate(-58.497 0.001)" fill="#c9e300"/>
    <path id="Path_41419" data-name="Path 41419" d="M146.247,22.351a2.533,2.533,0,0,1-1.122,2.128,1.875,1.875,0,0,1-2.92-1.066,2.532,2.532,0,0,1,1.344-3,1.866,1.866,0,0,1,2.536,1.1,2.352,2.352,0,0,1,.111.381c.028.154.036.312.051.457" transform="translate(-133.708 -19.056)" fill="#c9e300"/>
    <path id="Path_41420" data-name="Path 41420" d="M3.877,51.847a1.912,1.912,0,0,1-.841,1.627,1.805,1.805,0,0,1-2.107-.132A2.345,2.345,0,0,1,0,51.349a1.829,1.829,0,0,1,1.528-1.831,1.865,1.865,0,0,1,1.632.581,2.391,2.391,0,0,1,.714,1.748" transform="translate(-0.001 -46.573)" fill="#c9e300"/>
    <path id="Path_41421" data-name="Path 41421" d="M190.08,89.665a1.732,1.732,0,0,1-1.739-1.725,2.39,2.39,0,0,1,1.82-2.362,1.746,1.746,0,0,1,2.147,1.482,2.347,2.347,0,0,1-1.963,2.6,1.936,1.936,0,0,1-.265,0" transform="translate(-177.21 -80.479)" fill="#c9e300"/>
  </g>
</svg>
