<svg xmlns="http://www.w3.org/2000/svg" width="15.627" height="13.08" viewBox="0 0 15.627 13.08">
  <g id="Group_15815" data-name="Group 15815" transform="translate(0 0)">
    <g id="Group_15793" data-name="Group 15793" transform="translate(0 0)">
      <path id="Path_41393" data-name="Path 41393" d="M9.8,2.362c0-.386-.009-.757,0-1.127A2.393,2.393,0,0,1,9.89.62.817.817,0,0,1,11.105.112a1.826,1.826,0,0,1,.438.325q1.77,1.757,3.529,3.526a1.819,1.819,0,0,1-.031,2.645Q13.676,7.982,12.3,9.348c-.259.259-.507.53-.782.771a1.991,1.991,0,0,1-.572.363.778.778,0,0,1-1-.409A1.642,1.642,0,0,1,9.8,9.318c0-.361,0-.722,0-1.083a.283.283,0,0,0-.018-.053c-.3.025-.608.04-.913.076a11.641,11.641,0,0,0-5.394,2.06,11.791,11.791,0,0,0-2.515,2.4c-.047.06-.091.122-.14.181a.457.457,0,0,1-.507.151A.435.435,0,0,1,0,12.612a15.391,15.391,0,0,1,.136-1.654,10.1,10.1,0,0,1,4.7-7.046,9.78,9.78,0,0,1,4.354-1.5c.2-.02.394-.035.612-.055" transform="translate(0 0.001)" fill="#1a1a1a"/>
    </g>
  </g>
</svg>
