<svg id="Group_16017" data-name="Group 16017" xmlns="http://www.w3.org/2000/svg" xmlns:xlink="http://www.w3.org/1999/xlink" width="15.489" height="16.929" viewBox="0 0 15.489 16.929">
  <defs>
    <clipPath id="clip-path">
      <rect id="Rectangle_16263" data-name="Rectangle 16263" width="15.489" height="16.929" fill="#c9e300"/>
    </clipPath>
  </defs>
  <g id="Group_15854" data-name="Group 15854" clip-path="url(#clip-path)">
    <path id="Path_41422" data-name="Path 41422" d="M78.526,4.865c0,.083,0,.165,0,.248a.49.49,0,0,1-.351.484.469.469,0,0,1-.55-.191,1.754,1.754,0,0,0-1.224-.76c-.081-.012-.165-.007-.247-.016a.2.2,0,0,0-.211.112,1.805,1.805,0,0,1-2.925.242.18.18,0,0,0-.209-.067A1.809,1.809,0,0,1,70.653,3.59.308.308,0,0,0,70.5,3.38,1.814,1.814,0,0,1,71.574.008a1.717,1.717,0,0,1,.886.328.16.16,0,0,0,.227.008,1.805,1.805,0,0,1,2.76.881.2.2,0,0,0,.179.149A3.42,3.42,0,0,1,78.44,4.048a6.868,6.868,0,0,1,.111.815l-.025,0" transform="translate(-64.998 0)" fill="#c9e300"/>
    <path id="Path_41423" data-name="Path 41423" d="M70.538,119.849l-1.488-2.577,7.587-4.38,1.489,2.577-7.587,4.381" transform="translate(-64.485 -105.428)" fill="#c9e300"/>
    <path id="Path_41424" data-name="Path 41424" d="M5.2,189.36l-1.658.957-1.556.9a.834.834,0,0,1-1.255-.339c-.2-.347-.4-.693-.6-1.042a.81.81,0,0,1,.288-1.145c1.076-.63,2.158-1.25,3.238-1.874a.448.448,0,0,1,.061-.022L5.2,189.36" transform="translate(0 -174.443)" fill="#c9e300"/>
    <path id="Path_41425" data-name="Path 41425" d="M198.271,101.667l-1.489-2.581c.23-.13.438-.264.66-.369a.783.783,0,0,1,.992.276c.264.417.512.845.742,1.282a.792.792,0,0,1-.251,1c-.2.14-.422.254-.653.392" transform="translate(-183.771 -92.119)" fill="#c9e300"/>
  </g>
</svg>
